<svg xmlns="http://www.w3.org/2000/svg" viewBox="0 0 512 512" width="100%" height="100%">
  <defs>
    <linearGradient id="bg-grad" x1="0%" y1="0%" x2="100%" y2="100%">
      <stop offset="0%" stop-color="#6366f1" />
      <stop offset="100%" stop-color="#4f46e5" />
    </linearGradient>
    <linearGradient id="star-grad" x1="0%" y1="0%" x2="100%" y2="100%">
      <stop offset="0%" stop-color="#fbbf24" />
      <stop offset="100%" stop-color="#f59e0b" />
    </linearGradient>
  </defs>
  <!-- Background -->
  <rect width="512" height="512" rx="128" fill="url(#bg-grad)" />
  <!-- Face/Mouth Contour "A" -->
  <circle cx="256" cy="230" r="110" fill="none" stroke="#ffffff" stroke-width="24" stroke-linecap="round" />
  <!-- Wide Opened Mouth (Vowel A shape) -->
  <ellipse cx="256" cy="245" rx="60" ry="75" fill="#ffffff" />
  <!-- Tongue/Happy Inner Mouth -->
  <path d="M 206 280 Q 256 310 306 280 C 306 280 290 315 256 315 C 222 315 206 280 206 280 Z" fill="#ec4899" />
  <!-- Sparkles / Stars -->
  <path d="M 400 120 L 408 140 L 428 140 L 412 152 L 418 172 L 400 160 L 382 172 L 388 152 L 372 140 L 392 140 Z" fill="url(#star-grad)" />
  <path d="M 120 380 L 125 392 L 137 392 L 127 400 L 131 412 L 120 405 L 109 412 L 113 400 L 103 392 L 115 392 Z" fill="url(#star-grad)" />
  <!-- Sound Wave Visual -->
  <path d="M 100 230 A 180 180 0 0 1 120 160" fill="none" stroke="#a5b4fc" stroke-width="16" stroke-linecap="round" />
  <path d="M 412 230 A 180 180 0 0 0 392 160" fill="none" stroke="#a5b4fc" stroke-width="16" stroke-linecap="round" />
  <path d="M 80 230 A 220 220 0 0 1 110 130" fill="none" stroke="#a5b4fc" stroke-width="12" stroke-dasharray="8 8" stroke-linecap="round" />
  <path d="M 432 230 A 220 220 0 0 0 402 130" fill="none" stroke="#a5b4fc" stroke-width="12" stroke-dasharray="8 8" stroke-linecap="round" />
</svg>
